<?xml version="1.0" encoding="UTF-8" standalone="no"?>
<svg width="177px" height="119px" viewBox="0 0 177 119" version="1.1" xmlns="http://www.w3.org/2000/svg" xmlns:xlink="http://www.w3.org/1999/xlink">
    <!-- Generator: Sketch 48.1 (47250) - http://www.bohemiancoding.com/sketch -->
    <title>Banner-ChromeOS</title>
    <desc>Created with Sketch.</desc>
    <defs>
        <circle id="path-1" cx="15.744" cy="15.962" r="5.834"></circle>
    </defs>
    <g id="Page-1" stroke="none" stroke-width="1" fill="none" fill-rule="evenodd">
        <g id="Banner-ChromeOS">
            <g id="Group" transform="translate(0.000000, 31.000000)">
                <g fill-rule="nonzero">
                    <path d="M138.7,0.581 L23.826,0.581 C22.233,0.581 20.929,1.884 20.929,3.476 L20.929,80.032 L141.593,80.032 L141.593,3.476 C141.593,1.885 140.291,0.581 138.7,0.581 Z" id="Shape" fill="#2D363B"></path>
                    <rect id="Rectangle-path" fill="#FFFFFF" x="26.299" y="5.569" width="110.048" height="70.709"></rect>
                    <path d="M153.87,87.179 L8.452,87.179 C8.019,87.179 7.588,87.103 7.181,86.953 L0.556,84.524 L161.765,84.524 L155.14,86.953 C154.733,87.102 154.303,87.179 153.87,87.179 Z" id="Shape" fill="#BCC7C7"></path>
                    <circle id="Oval" fill="#868789" cx="81.15" cy="3.569" r="1"></circle>
                    <rect id="Rectangle-path" fill="#BCC7C7" x="68.049" y="80.02" width="26.124" height="2.653"></rect>
                    <path d="M92.101,80.02 L92.101,80.254 C92.101,81.32 91.229,82.192 90.163,82.192 L72.076,82.192 C71.011,82.192 70.14,81.321 70.14,80.256 L70.14,80.02 L0.557,80.02 L0.557,84.523 L161.766,84.523 L161.766,80.02 L92.101,80.02 Z" id="Shape" fill="#EDF1F1"></path>
                </g>
                <g transform="translate(44.000000, 26.000000)">
                    <g transform="translate(31.000000, 0.000000)">
                        <path d="M15.539,17.6350004 C10.154,17.6360002 5.763,13.3800001 5.547,8.04700003 C5.547,6.73400002 6.609,5.67 7.922,5.67 C9.235,5.67 10.291,6.74900002 10.291,8.06200004 L10.291,8.04700003 C10.076,13.3800001 5.685,17.6360002 0.299,17.6350004" id="Shape" stroke="#E55525" stroke-width="0.4479"></path>
                        <g transform="translate(15.000000, 0.000000)" fill-rule="nonzero">
                            <path d="M21.799,21.406 C21.509,21.406 21.213,21.385 20.922,21.342 C18.479,20.993 16.845,19.239 15.929,17.889 C15.011,19.238 13.378,20.995 10.935,21.343 C10.645,21.385 10.349,21.405 10.058,21.405 C8.539,21.405 7.113,20.84 6.041,19.813 C4.958,18.779 4.36,17.389 4.36,15.909 C4.36,14.426 4.958,13.039 6.042,12.002 C7.113,10.976 8.54,10.412 10.06,10.412 C10.35,10.412 10.644,10.433 10.935,10.474 C13.377,10.822 15.011,12.577 15.929,13.926 C16.845,12.577 18.479,10.823 20.922,10.474 C21.214,10.432 21.508,10.412 21.797,10.412 C23.316,10.412 24.742,10.977 25.814,12.002 C26.897,13.039 27.494,14.426 27.494,15.909 C27.494,17.39 26.899,18.779 25.815,19.813 C24.743,20.841 23.317,21.406 21.799,21.406 M17.012,15.91 C17.489,16.819 18.896,19.086 21.197,19.416 C21.399,19.444 21.601,19.459 21.799,19.459 C23.865,19.459 25.548,17.868 25.548,15.91 C25.548,13.952 23.866,12.36 21.798,12.36 C21.601,12.36 21.397,12.374 21.198,12.403 C18.896,12.732 17.488,14.999 17.012,15.91 M10.061,12.36 C7.991,12.36 6.309,13.952 6.309,15.91 C6.309,17.867 7.99,19.459 10.058,19.459 C10.256,19.459 10.459,19.444 10.66,19.416 C12.961,19.087 14.368,16.82 14.846,15.91 C14.369,15.001 12.961,12.732 10.66,12.404 C10.461,12.375 10.258,12.36 10.061,12.36" id="Shape" fill="#04969A"></path>
                            <rect id="Rectangle-path" fill="#04969A" x="8.49" y="15.372" width="3.422" height="1.103"></rect>
                            <polygon id="Shape" fill="#04969A" points="23.334 15.372 22.176 15.372 22.176 14.212 21.07 14.212 21.07 15.372 19.912 15.372 19.912 16.475 21.07 16.475 21.07 17.635 22.176 17.635 22.176 16.475 23.334 16.475"></polygon>
                            <path d="M15.928,31.573 C7.296,31.573 0.273,24.55 0.273,15.918 C0.273,7.286 7.296,0.263 15.928,0.263 C24.56,0.263 31.583,7.286 31.583,15.918 C31.582,24.551 24.56,31.573 15.928,31.573 Z M15.928,0.833 C7.609,0.833 0.842,7.601 0.842,15.918 C0.842,24.236 7.61,31.004 15.928,31.004 C24.246,31.004 31.013,24.236 31.013,15.918 C31.013,7.601 24.246,0.833 15.928,0.833 Z" id="Shape" fill="#F0C419"></path>
                        </g>
                    </g>
                    <g fill-rule="nonzero">
                        <path d="M15.783,0.102 C15.783,0.102 25.042,-0.315 29.95,8.991 C27.357,8.991 14.996,8.991 14.996,8.991 C14.996,8.991 12.172,8.898 9.764,12.325 C9.07,13.76 8.329,15.242 9.162,18.158 C7.958,16.121 2.773,7.093 2.773,7.093 C2.773,7.093 6.431,0.473 15.783,0.102 Z" id="Shape" fill="#E5322A"></path>
                        <path d="M29.467,23.729 C29.467,23.729 25.197,31.955 14.684,31.551 C15.981,29.306 22.163,18.601 22.163,18.601 C22.163,18.601 23.656,16.202 21.893,12.404 C20.997,11.085 20.085,9.702 17.142,8.965 C19.509,8.942 29.919,8.966 29.919,8.966 C29.919,8.966 33.824,15.446 29.467,23.729 Z" id="Shape" fill="#FCD900"></path>
                        <path d="M2.164,23.792 C2.164,23.792 -2.825,15.98 2.782,7.078 C4.078,9.324 10.256,20.03 10.256,20.03 C10.256,20.03 11.587,22.522 15.758,22.895 C17.348,22.779 19.002,22.68 21.111,20.501 C19.948,22.562 14.72,31.565 14.72,31.565 C14.72,31.565 7.159,31.707 2.164,23.792 Z" id="Shape" fill="#65B44A"></path>
                        <path d="M14.684,31.628 L16.787,22.85 C16.787,22.85 19.1,22.669 21.038,20.543 C19.836,22.659 14.684,31.628 14.684,31.628 Z" id="Shape" fill="#61AB47"></path>
                        <circle id="Oval" fill="#FFFFFF" cx="15.744" cy="15.962" r="7.006"></circle>
                        <path d="M29.92,8.967 L21.258,11.507 C21.258,11.507 19.952,9.59 17.143,8.966 C19.577,8.957 29.92,8.967 29.92,8.967 Z" id="Shape" fill="#F0CE16"></path>
                        <path d="M8.993,17.843 C7.776,15.735 2.773,7.093 2.773,7.093 L9.189,13.44 C9.189,13.44 8.53,14.796 8.78,16.734 L8.993,17.843 Z" id="Shape" fill="#D93227"></path>
                    </g>
                    <mask id="mask-2" fill="white">
                        <use xlink:href="#path-1"></use>
                    </mask>
                    <use id="SVGID_229_" fill-opacity="0.8" fill="#146DB3" xlink:href="#path-1"></use>
                </g>
            </g>
            <g id="Group" transform="translate(117.000000, 0.000000)" fill-rule="nonzero">
                <circle id="Oval" fill="#F0C419" cx="29.939" cy="30.017" r="29.781"></circle>
                <g transform="translate(8.000000, 16.000000)" fill="#FFFFFF" id="Shape">
                    <path d="M6.176,0.666 L6.176,1.559 C7.162,1.59 7.946,1.793 8.526,2.091 L8.165,3.124 C7.696,2.779 6.944,2.545 6.177,2.498 L6.177,5.676 C7.493,6.224 8.933,6.85 8.933,8.51 C8.933,9.825 7.744,10.748 6.177,10.936 L6.177,11.797 L5.427,11.797 L5.427,10.967 C4.269,10.951 3.282,10.654 2.671,10.278 L3.062,9.26 C3.611,9.652 4.55,10.012 5.427,10.043 L5.427,6.505 C4.157,5.972 2.859,5.393 2.859,3.922 C2.859,2.638 3.939,1.746 5.427,1.589 L5.427,0.665 L6.176,0.665 L6.176,0.666 Z M5.426,5.347 L5.426,2.545 C4.58,2.67 4.031,3.108 4.031,3.829 C4.032,4.564 4.627,4.971 5.426,5.347 Z M6.176,6.834 L6.176,9.997 C7.037,9.856 7.742,9.402 7.742,8.619 C7.743,7.726 7.037,7.241 6.176,6.834 Z"></path>
                    <path d="M19.059,5.863 C19.059,8.368 18.37,11.374 15.098,11.374 C12.514,11.374 11.262,9.574 11.262,6.333 C11.262,3.421 12.139,0.9 15.207,0.9 C17.963,0.9 19.059,2.826 19.059,5.863 Z M17.776,6.036 C17.776,4.11 17.493,1.981 15.098,1.981 C13.032,1.981 12.545,4.001 12.545,5.989 C12.545,8.149 12.844,10.309 15.191,10.309 C17.368,10.309 17.776,8.071 17.776,6.036 Z"></path>
                    <path d="M22.391,9.84 C22.86,9.84 23.221,10.075 23.221,10.607 C23.221,11.124 22.891,11.374 22.391,11.374 C21.873,11.374 21.577,11.124 21.577,10.607 C21.576,10.106 21.889,9.84 22.391,9.84 Z"></path>
                    <path d="M28.996,0.9 C31.609,0.9 32.549,2.873 32.549,5.753 C32.549,9.275 30.483,11.358 27.133,11.358 C26.789,11.358 26.428,11.342 26.053,11.295 L26.053,10.168 C26.412,10.23 26.789,10.262 27.133,10.262 C29.309,10.262 31.11,9.073 31.25,6.411 C30.529,6.881 29.67,7.225 28.604,7.225 C26.93,7.225 25.598,6.27 25.598,4.36 C25.598,2.294 26.836,0.9 28.996,0.9 Z M29.012,6.145 C29.936,6.145 30.766,5.753 31.282,5.331 C31.251,3.515 30.798,1.965 28.872,1.965 C27.446,1.965 26.868,3.03 26.868,4.157 C26.868,5.55 27.539,6.145 29.012,6.145 Z"></path>
                    <path d="M38.276,0.9 C40.891,0.9 41.831,2.873 41.831,5.753 C41.831,9.275 39.765,11.358 36.415,11.358 C36.069,11.358 35.71,11.342 35.333,11.295 L35.333,10.168 C35.694,10.23 36.069,10.262 36.415,10.262 C38.591,10.262 40.39,9.073 40.532,6.411 C39.811,6.881 38.95,7.225 37.886,7.225 C36.21,7.225 34.88,6.27 34.88,4.36 C34.879,2.294 36.116,0.9 38.276,0.9 Z M38.291,6.145 C39.215,6.145 40.045,5.753 40.562,5.331 C40.531,3.515 40.076,1.965 38.15,1.965 C36.726,1.965 36.146,3.03 36.146,4.157 C36.147,5.55 36.821,6.145 38.291,6.145 Z"></path>
                    <polygon points="7.795 18.953 7.061 20.992 5.276 25.425 4.198 25.425 2.413 21.208 1.591 19.093 1.591 25.426 0.64 25.426 0.64 17.194 1.806 17.194 3.755 21.817 4.757 24.439 5.72 21.868 7.618 17.194 8.759 17.194 8.759 25.426 7.796 25.426"></polygon>
                    <path d="M18.729,21.321 C18.729,23.778 17.247,25.551 14.93,25.551 C12.498,25.551 11.219,23.942 11.219,21.346 C11.219,18.864 12.625,17.078 14.992,17.078 C17.399,17.078 18.729,18.624 18.729,21.321 Z M17.627,21.321 C17.627,19.181 16.842,17.965 14.992,17.965 C13.131,17.965 12.308,19.194 12.308,21.346 C12.308,23.398 13.029,24.664 14.929,24.664 C16.754,24.665 17.627,23.335 17.627,21.321 Z"></path>
                    <polygon points="22.164 25.424 21.176 25.424 21.176 17.192 22.254 17.192 25.545 21.916 26.838 23.841 26.824 22.245 26.824 17.191 27.801 17.191 27.801 25.423 26.774 25.423 23.469 20.674 22.153 18.698 22.165 20.522 22.165 25.424 22.164 25.424"></polygon>
                    <polygon points="35.909 18.091 33.352 18.091 33.352 25.424 32.325 25.424 32.325 18.091 29.755 18.091 29.755 17.192 35.909 17.192 35.909 18.091"></polygon>
                    <polygon points="43.979 17.192 43.979 25.424 42.954 25.424 42.954 21.65 38.89 21.65 38.89 25.424 37.863 25.424 37.863 17.192 38.89 17.192 38.89 20.726 42.954 20.726 42.954 17.192"></polygon>
                </g>
            </g>
        </g>
    </g>
</svg>