<?xml version="1.0" encoding="utf-8"?>
<!-- Generator: Adobe Illustrator 19.2.1, SVG Export Plug-In . SVG Version: 6.00 Build 0)  -->
<svg version="1.1" id="Livello_1" xmlns="http://www.w3.org/2000/svg" xmlns:xlink="http://www.w3.org/1999/xlink" x="0px" y="0px"
	 width="83px" height="83px" viewBox="0 0 83 83" enable-background="new 0 0 83 83" xml:space="preserve">
<g id="Livello_2">
</g>
<g id="Livello_1_1_">
	<path fill="#FFFFFF" d="M56.075,54.681c-0.714,0-1.444-0.051-2.163-0.158c-6.023-0.86-10.05-5.185-12.308-8.511
		c-2.262,3.325-6.289,7.656-12.31,8.514c-0.716,0.103-1.444,0.154-2.163,0.154c-3.745,0-7.259-1.393-9.903-3.924
		c-2.669-2.55-4.143-5.975-4.143-9.625c0-3.655,1.474-7.075,4.147-9.631c2.64-2.53,6.158-3.92,9.905-3.92
		c0.714,0,1.44,0.051,2.156,0.154c6.021,0.859,10.048,5.184,12.31,8.51c2.258-3.325,6.285-7.65,12.308-8.51
		c0.719-0.103,1.444-0.154,2.158-0.154c3.745,0,7.261,1.393,9.903,3.92c2.671,2.556,4.142,5.975,4.142,9.631
		c0,3.65-1.467,7.074-4.138,9.625C63.332,53.286,59.818,54.681,56.075,54.681 M44.274,41.131c1.175,2.24,4.644,7.83,10.317,8.642
		c0.497,0.068,0.997,0.106,1.485,0.106c5.094,0,9.241-3.923,9.241-8.749s-4.147-8.751-9.245-8.751c-0.486,0-0.988,0.035-1.478,0.106
		C48.918,33.296,45.449,38.886,44.274,41.131 M27.139,32.381c-5.103,0-9.25,3.924-9.25,8.751c0,4.825,4.145,8.749,9.243,8.749
		c0.488,0,0.988-0.038,1.485-0.106c5.673-0.812,9.142-6.399,10.319-8.642c-1.175-2.241-4.646-7.835-10.319-8.642
		C28.126,32.416,27.624,32.381,27.139,32.381"/>
	<rect x="23.267" y="39.806" fill="#FFFFFF" width="8.436" height="2.719"/>
	<polygon fill="#FFFFFF" points="59.86,39.806 57.006,39.806 57.006,36.946 54.278,36.946 54.278,39.806 51.424,39.806 
		51.424,42.524 54.278,42.524 54.278,45.383 57.006,45.383 57.006,42.524 59.86,42.524 	"/>
	<path fill="#FFFFFF" d="M41.602,79.744c-21.279,0-38.592-17.312-38.592-38.591S20.322,2.562,41.602,2.562
		s38.591,17.312,38.591,38.591C80.192,62.432,62.881,79.744,41.602,79.744z M41.602,3.964c-20.507,0-37.189,16.683-37.189,37.188
		c0,20.506,16.683,37.189,37.189,37.189S78.79,61.658,78.79,41.152C78.79,20.647,62.107,3.964,41.602,3.964z"/>
</g>
</svg>
