<?xml version="1.0" encoding="utf-8"?>
<!-- Generator: Adobe Illustrator 19.2.1, SVG Export Plug-In . SVG Version: 6.00 Build 0)  -->
<svg version="1.1" id="Livello_1" xmlns="http://www.w3.org/2000/svg" xmlns:xlink="http://www.w3.org/1999/xlink" x="0px" y="0px"
	 width="83px" height="83px" viewBox="0 0 83 83" enable-background="new 0 0 83 83" xml:space="preserve">
<g id="Livello_2">
</g>
<g id="Livello_1_1_">
	<path fill="#FFFFFF" d="M62.998,18.786h-1.425v-4.199h-6.229v4.199H44.963v-4.199h-6.229v4.199H28.353v-4.199h-6.229v4.199h-1.419
		c-3.367,0-6.106,2.737-6.106,6.101v29.867c0,3.366,2.739,6.104,6.106,6.104h1.419v4.308h6.229v-4.308h10.381v4.308h6.229v-4.308
		h10.381v4.308h6.229v-4.308h1.425c3.363,0,6.101-2.738,6.101-6.104V24.887C69.099,21.523,66.361,18.786,62.998,18.786z
		 M56.746,15.988h3.425v2.798h-3.425V15.988z M40.136,15.988h3.425v2.798h-3.425V15.988z M23.525,15.988h3.425v2.798h-3.425V15.988z
		 M26.95,63.764h-3.425v-2.907h3.425V63.764z M43.561,63.764h-3.425v-2.907h3.425V63.764z M60.171,63.764h-3.425v-2.907h3.425
		V63.764z M67.696,54.753c0,2.593-2.107,4.702-4.698,4.702H20.704c-2.594,0-4.704-2.109-4.704-4.702V24.887
		c0-2.591,2.11-4.699,4.704-4.699h42.294c2.591,0,4.698,2.108,4.698,4.699V54.753z"/>
	
		<rect x="53.127" y="45.037" transform="matrix(0.7071 -0.7071 0.7071 0.7071 -17.0466 52.5952)" fill="#FFFFFF" width="3.675" height="3.675"/>
	
		<rect x="26.895" y="45.036" transform="matrix(0.7069 -0.7073 0.7073 0.7069 -24.7328 34.0614)" fill="#FFFFFF" width="3.676" height="3.676"/>
	<path fill="#FFFFFF" d="M40.554,46.873c-0.006-0.723,0.58-1.295,1.299-1.298c0.717,0,1.295,0.578,1.295,1.298
		s-0.584,1.298-1.295,1.298C41.131,48.171,40.548,47.593,40.554,46.873L40.554,46.873L40.554,46.873z"/>
</g>
</svg>
