<?xml version="1.0" encoding="utf-8"?>
<!-- Generator: Adobe Illustrator 19.2.1, SVG Export Plug-In . SVG Version: 6.00 Build 0)  -->
<svg version="1.1" id="Livello_1" xmlns="http://www.w3.org/2000/svg" xmlns:xlink="http://www.w3.org/1999/xlink" x="0px" y="0px"
	 width="83px" height="83px" viewBox="0 0 83 83" enable-background="new 0 0 83 83" xml:space="preserve">
<g id="Livello_2">
</g>
<g id="Livello_1_1_">
	<rect x="32.559" y="51.244" fill="#FFFFFF" width="1.402" height="30.928"/>
	<rect x="48.712" y="51.244" fill="#FFFFFF" width="1.402" height="20.44"/>
	<path fill="#FFFFFF" d="M60.058,43.194V20.566c0-10.157-8.217-18.42-18.317-18.42c-10.102,0-18.319,8.264-18.319,18.42v22.627
		h-3.685v8.751h44.005v-8.751L60.058,43.194L60.058,43.194z M24.823,20.566c0-9.384,7.589-17.018,16.917-17.018
		c9.327,0,16.915,7.634,16.915,17.018v22.627H24.823V20.566z M62.339,50.543h-41.2v-5.948h41.2V50.543z"/>
	<path fill="#FFFFFF" d="M42.657,31.428c0.51-0.507,0.505-1.33,0-1.845c-0.507-0.509-1.326-0.509-1.838,0
		c-0.505,0.515-0.505,1.341,0,1.845C41.328,31.943,42.151,31.943,42.657,31.428L42.657,31.428L42.657,31.428z"/>
	<path fill="#FFFFFF" d="M31.76,28.663c-1.01-1.024-2.648-1.024-3.672,0c-1.011,1.021-1.011,2.677,0,3.695
		c1.016,1.024,2.662,1.024,3.672,0C32.783,31.332,32.774,29.684,31.76,28.663z M29.928,31.817l-1.302-1.306l1.302-1.308l1.299,1.308
		L29.928,31.817z"/>
	<path fill="#FFFFFF" d="M55.389,28.663c-1.013-1.024-2.653-1.024-3.676,0c-1.012,1.021-1.012,2.677,0,3.695
		c1.017,1.024,2.663,1.024,3.676,0C56.408,31.332,56.4,29.684,55.389,28.663z M53.552,31.817l-1.3-1.306l1.3-1.308l1.3,1.308
		L53.552,31.817z"/>
</g>
</svg>
