<?xml version="1.0" encoding="utf-8"?>
<!-- Generator: Adobe Illustrator 19.2.1, SVG Export Plug-In . SVG Version: 6.00 Build 0)  -->
<svg version="1.1" xmlns="http://www.w3.org/2000/svg" xmlns:xlink="http://www.w3.org/1999/xlink" x="0px" y="0px" width="83px"
	 height="83px" viewBox="0 0 83 83" enable-background="new 0 0 83 83" xml:space="preserve">
<g id="Livello_2">
</g>
<g id="Livello_1">
	<path fill="#007481" d="M69.935,27.952C69.401,17.392,60.516,8.89,49.879,8.89c-5.596,0-10.934,2.346-14.73,6.443
		c-1.604-0.59-3.285-0.904-5.014-0.904c-7.477,0-13.708,5.675-14.465,13.037c-8.266,0.329-14.889,7.156-14.889,15.5
		c0,8.554,6.959,15.512,15.513,15.512h49.728c8.554,0,15.513-6.958,15.513-15.512C81.535,35.938,76.688,29.71,69.935,27.952z
		 M66.022,57.077H16.294c-7.78,0-14.11-6.33-14.11-14.111s6.33-14.111,14.075-14.112c0.187,0.02,0.375-0.045,0.518-0.169
		c0.143-0.124,0.229-0.3,0.24-0.489c0.403-6.935,6.165-12.367,13.118-12.367c1.713,0,3.379,0.325,4.95,0.964l0.003-0.007
		c0.267,0.109,0.584,0.051,0.787-0.178c3.547-4.015,8.65-6.318,14.004-6.318c10.063,0,18.44,8.181,18.675,18.236
		c0.008,0.343,0.261,0.623,0.59,0.675c6.37,1.438,10.988,7.22,10.988,13.765C80.132,50.747,73.802,57.077,66.022,57.077z"/>
	<rect x="51.678" y="39.696" fill="#8C7965" width="5.196" height="1.67"/>
	<rect x="25.443" y="39.696" fill="#8C7965" width="5.197" height="1.67"/>
	<path fill="#E75300" d="M43.757,40.534c0.007,1.432-1.154,2.59-2.592,2.595c-1.441-0.003-2.601-1.166-2.601-2.598L43.757,40.534z"
		/>
	<path fill="#007481" d="M20.651,65.46c-0.101,0-0.202-0.021-0.299-0.067c-0.35-0.165-0.5-0.583-0.335-0.933l1.333-2.833
		c0.165-0.352,0.583-0.5,0.933-0.336c0.35,0.165,0.5,0.583,0.335,0.933l-1.333,2.833C21.165,65.311,20.913,65.46,20.651,65.46z"/>
	<path fill="#007481" d="M33.877,65.46c-0.101,0-0.202-0.022-0.299-0.067c-0.35-0.165-0.5-0.582-0.335-0.932l1.334-2.833
		c0.164-0.352,0.582-0.5,0.933-0.335c0.35,0.165,0.5,0.582,0.335,0.932l-1.334,2.833C34.392,65.311,34.14,65.46,33.877,65.46z"/>
	<path fill="#007481" d="M47.105,65.46c-0.101,0-0.202-0.021-0.299-0.067c-0.35-0.165-0.5-0.583-0.335-0.933l1.333-2.833
		c0.164-0.352,0.583-0.5,0.933-0.336c0.35,0.165,0.5,0.583,0.335,0.933l-1.333,2.833C47.619,65.311,47.368,65.46,47.105,65.46z"/>
	<path fill="#007481" d="M25.034,73c-0.101,0-0.202-0.021-0.299-0.067c-0.35-0.165-0.5-0.582-0.335-0.932l1.334-2.833
		c0.165-0.352,0.583-0.502,0.933-0.335c0.35,0.165,0.5,0.582,0.335,0.932l-1.334,2.833C25.548,72.851,25.296,73,25.034,73z"/>
	<path fill="#007481" d="M38.261,73c-0.101,0-0.202-0.021-0.298-0.067c-0.351-0.165-0.501-0.583-0.336-0.933l1.333-2.833
		c0.165-0.352,0.585-0.501,0.932-0.336c0.351,0.165,0.501,0.583,0.336,0.933l-1.333,2.833C38.776,72.851,38.524,73,38.261,73z"/>
	<path fill="#007481" d="M51.489,73c-0.101,0-0.202-0.021-0.298-0.067C50.84,72.768,50.69,72.351,50.855,72l1.333-2.833
		c0.164-0.352,0.585-0.501,0.932-0.336c0.351,0.165,0.501,0.583,0.336,0.933l-1.333,2.833C52.003,72.851,51.751,73,51.489,73z"/>
	<path fill="#007481" d="M60.332,65.46c-0.101,0-0.202-0.021-0.299-0.067c-0.35-0.165-0.5-0.583-0.335-0.933l1.333-2.833
		c0.164-0.352,0.582-0.5,0.933-0.336c0.35,0.165,0.5,0.583,0.335,0.933l-1.333,2.833C60.847,65.311,60.595,65.46,60.332,65.46z"/>
</g>
</svg>
