<?xml version="1.0" encoding="utf-8"?>
<!-- Generator: Adobe Illustrator 19.2.1, SVG Export Plug-In . SVG Version: 6.00 Build 0)  -->
<svg version="1.1" id="Layer_1" xmlns="http://www.w3.org/2000/svg" xmlns:xlink="http://www.w3.org/1999/xlink" x="0px" y="0px"
	 width="113px" height="91px" viewBox="0 0 113 91" enable-background="new 0 0 113 91" xml:space="preserve">
<path fill="#8C7965" d="M84.195,52.467c1.217,1.227,3.205,1.227,4.429,0c1.22-1.214,1.22-3.197,0-4.427
	c-1.234-1.22-3.211-1.22-4.429,0C82.971,49.27,82.961,51.243,84.195,52.467z M84.838,50.257l1.569-1.56l1.565,1.56l-1.565,1.57
	L84.838,50.257z"/>
<path fill="#8C7965" d="M52.375,52.467c1.217,1.227,3.2,1.227,4.429,0c1.216-1.214,1.216-3.197,0-4.427
	c-1.235-1.22-3.211-1.22-4.429,0C51.151,49.27,51.141,51.243,52.375,52.467z M53.018,50.257l1.565-1.56l1.564,1.56l-1.564,1.57
	L53.018,50.257z"/>
<path fill="#E75300" d="M73.624,50.26c0.01,1.729-1.397,3.121-3.124,3.127c-1.74-0.007-3.132-1.402-3.132-3.131L73.624,50.26z"/>
<polyline fill="none" stroke="#03979C" stroke-width="1.5588" stroke-miterlimit="10" points="16.8,42.761 16.8,78.875 
	16.806,79.001 16.826,79.122 16.854,79.24 16.895,79.359 16.95,79.471 17.012,79.577 17.086,79.676 17.169,79.769 17.262,79.853 
	17.36,79.926 17.465,79.987 17.578,80.041 17.696,80.083 17.814,80.112 17.936,80.131 18.061,80.136 98.778,80.136 98.902,80.131 
	99.024,80.112 99.143,80.083 99.262,80.041 99.374,79.987 99.479,79.926 99.578,79.853 99.671,79.769 99.755,79.676 99.828,79.577 
	99.889,79.471 99.942,79.359 99.984,79.24 100.013,79.122 100.033,79.001 100.039,78.875 100.039,76.935 103.24,73.734 
	103.24,32.437 100.039,29.236 100.039,14.829 98.118,12.909 18.061,12.909 18.061,12.905 17.936,12.912 17.814,12.932 17.696,12.96 
	17.578,13.002 17.465,13.056 17.36,13.116 17.262,13.191 17.169,13.274 17.086,13.366 17.012,13.465 16.95,13.571 16.895,13.683 
	16.854,13.802 16.826,13.921 16.806,14.043 16.8,14.166 16.8,24.751 "/>
<path fill="none" stroke="#9FA0A2" stroke-width="1.9491" stroke-miterlimit="10" d="M10.823,24.751h20.762
	c0.89,0,1.612,0.722,1.612,1.612v14.786c0,0.89-0.722,1.612-1.612,1.612H10.823c-0.89,0-1.612-0.722-1.612-1.612V26.363
	C9.211,25.473,9.933,24.751,10.823,24.751z"/>
<path fill="#EDAA00" d="M101.182,33.842c-0.839-0.841-2.199-0.841-3.049,0c-0.839,0.845-0.839,2.211,0,3.049
	c0.843,0.845,2.21,0.845,3.049,0C102.031,36.046,102.024,34.688,101.182,33.842z M99.66,36.451l-1.079-1.082l1.079-1.077
	l1.079,1.077L99.66,36.451z"/>
<path fill="#EDAA00" d="M101.182,68.949c-0.839-0.841-2.199-0.841-3.049,0c-0.839,0.845-0.839,2.211,0,3.049
	c0.843,0.845,2.21,0.845,3.049,0C102.031,71.153,102.024,69.794,101.182,68.949z M99.66,71.558l-1.079-1.082l1.079-1.077
	l1.079,1.077L99.66,71.558z"/>
<path fill="#EDAA00" d="M36.874,75.002c-0.839-0.841-2.199-0.841-3.049,0c-0.839,0.845-0.839,2.211,0,3.049
	c0.843,0.845,2.21,0.845,3.049,0C37.723,77.206,37.716,75.847,36.874,75.002z M35.352,77.611l-1.079-1.082l1.079-1.077l1.079,1.077
	L35.352,77.611z"/>
</svg>
