<?xml version="1.0" encoding="utf-8"?>
<!-- Generator: Adobe Illustrator 19.2.1, SVG Export Plug-In . SVG Version: 6.00 Build 0)  -->
<svg version="1.1" xmlns="http://www.w3.org/2000/svg" xmlns:xlink="http://www.w3.org/1999/xlink" x="0px" y="0px" width="83px"
	 height="83px" viewBox="0 0 83 83" enable-background="new 0 0 83 83" xml:space="preserve">
<g id="Livello_2">
</g>
<g id="Livello_1">
	<path fill="#8C7965" d="M62.118,58.445H21.654c-3.208,0-5.821-2.602-5.849-5.811l-5.001-34.494c0-3.232,2.624-5.861,5.85-5.861
		h50.465c3.226,0,5.85,2.629,5.85,5.861l-0.008,0.101l-4.993,34.393C67.94,55.843,65.326,58.445,62.118,58.445z M12.206,18.092
		l5,34.49c0,2.46,1.995,4.462,4.447,4.462h40.465c2.452,0,4.447-2.001,4.447-4.462l0.008-0.101l4.992-34.39
		c-0.026-2.437-2.011-4.411-4.447-4.411H16.654C14.217,13.681,12.233,15.655,12.206,18.092z"/>
	<path fill="#8C7965" d="M26.973,76.701c-4.143,0-7.514-3.37-7.514-7.513s3.371-7.513,7.514-7.513s7.514,3.37,7.514,7.513
		S31.116,76.701,26.973,76.701z M26.973,63.076c-3.37,0-6.111,2.742-6.111,6.112s2.741,6.112,6.111,6.112s6.111-2.742,6.111-6.112
		S30.343,63.076,26.973,63.076z"/>
	<path fill="#EDAA00" d="M28.807,67.349c-1.011-1.013-2.65-1.013-3.673,0c-1.01,1.018-1.01,2.664,0,3.673
		c1.016,1.018,2.662,1.018,3.673,0C29.829,70.004,29.821,68.367,28.807,67.349z M26.973,70.491l-1.3-1.303l1.3-1.298l1.3,1.298
		L26.973,70.491z"/>
	<path fill="#8C7965" d="M56.8,76.701c-4.143,0-7.514-3.37-7.514-7.513s3.371-7.513,7.514-7.513s7.514,3.37,7.514,7.513
		S60.943,76.701,56.8,76.701z M56.8,63.076c-3.37,0-6.111,2.742-6.111,6.112s2.741,6.112,6.111,6.112s6.111-2.742,6.111-6.112
		S60.17,63.076,56.8,63.076z"/>
	<path fill="#EDAA00" d="M58.635,67.349c-1.011-1.013-2.651-1.013-3.675,0c-1.01,1.018-1.01,2.664,0,3.673
		c1.017,1.018,2.663,1.018,3.675,0C59.656,70.004,59.647,68.367,58.635,67.349z M56.799,70.491L55.5,69.188l1.299-1.298l1.302,1.298
		L56.799,70.491z"/>
	<path fill="#8C7965" d="M10.05,13.009c-0.137-3.39-2.903-6.044-6.3-6.044V5.563c4.151,0,7.533,3.246,7.7,7.389l-0.562,0.023
		l0.563-0.004v0.009L10.05,13.009z"/>
	<path fill="#007481" d="M53.254,37.197c1.01,1.018,2.659,1.018,3.675,0c1.013-1.007,1.013-2.653,0-3.674
		c-1.024-1.013-2.665-1.013-3.675,0C52.238,34.545,52.23,36.182,53.254,37.197z M53.788,35.363l1.302-1.295l1.299,1.295
		l-1.299,1.303L53.788,35.363z"/>
	<path fill="#007481" d="M26.849,37.197c1.01,1.018,2.655,1.018,3.675,0c1.009-1.007,1.009-2.653,0-3.674
		c-1.025-1.013-2.665-1.013-3.675,0C25.833,34.545,25.825,36.182,26.849,37.197z M27.383,35.363l1.299-1.295l1.298,1.295
		l-1.298,1.303L27.383,35.363z"/>
	<path fill="#8C7965" d="M44.482,35.366c0.008,1.434-1.159,2.59-2.592,2.595c-1.444-0.006-2.599-1.164-2.599-2.598L44.482,35.366z"
		/>
</g>
</svg>
